<svg xmlns="http://www.w3.org/2000/svg" viewBox="0 0 100 100">
  <path d="M14 11 C25 25 37 38 46 49 C58 64 71 77 88 90" fill="none" stroke="#D92525" stroke-width="5.8" stroke-linecap="round"/>
  <path d="M89 9 C78 20 69 31 60 41 C49 54 40 65 29 76 C22 83 17 88 12 92" fill="none" stroke="#D92525" stroke-width="5.2" stroke-linecap="round"/>
  <path d="M17 14 C30 29 40 42 50 53 C61 67 72 78 85 87" fill="none" stroke="#EF4B4B" stroke-width="1.7" stroke-linecap="round" opacity=".36"/>
  <path d="M86 12 C73 26 62 39 51 52 C39 67 28 80 16 89" fill="none" stroke="#EF4B4B" stroke-width="1.4" stroke-linecap="round" opacity=".28"/>
</svg>
